# xmcd CD database file
#
# Track frame offsets:
#	150
#	28357
#	45520
#
# Disc length: 854 seconds
#
# Revision: 0
# Processed by: cddbd v1.5PL3 Copyright (c) Steve Scherf et al.
# Submitted via: CDex 1.51
#
DISCID=20035403
DTITLE=ORANGE RANGE - ミチシルベ
DYEAR=2002
DGENRE=Pop
TTITLE0=ミチシルベ
TTITLE1=ミッドナイトゲージ
TTITLE2=キリキリマイ　〜リューキューディスコリミックス〜
EXTD=YEAR: 2002
EXTT0=
EXTT1=
EXTT2=
PLAYORDER=
